# xmcd
#
# Track frame offsets:
#	150
#	10250
#	20817
#	32875
#	53927
#	65335
#	77850
#	88962
#	105117
#
# Disc length: 1520 seconds
#
# Revision: 1
# Processed by: cddbd v1.4PL0 Copyright (c) Steve Scherf et al.
# Submitted via: audiograbber 1.80
#
DISCID=6e05ee09
DTITLE=Lee Hazlewood - 13
DYEAR=1900
DGENRE=
TTITLE0=You Look Like A Lady
TTITLE1=Tulsa Sunday
TTITLE2=Ten Or 11 Towns Ago
TTITLE3=Toocie And The River
TTITLE4=She Comes Running
TTITLE5=Rosacoke Street
TTITLE6=I Move Around
TTITLE7=And I Loved You Then
TTITLE8=Hej, Me I'm Riding
EXTD=
EXTT0=
EXTT1=
EXTT2=
EXTT3=
EXTT4=
EXTT5=
EXTT6=
EXTT7=
EXTT8=
PLAYORDER=
